HIERARCHY
ROOT Hips
{
	OFFSET 0.000000 0.000000 0.000000
	CHANNELS 6 Xposition Yposition Zposition Zrotation Yrotation Xrotation
	JOINT LHipJoint
	{
		OFFSET 0.000000 0.000000 0.000000
		CHANNELS 3 Zrotation Yrotation Xrotation
		JOINT LeftUpLeg
		{
			OFFSET 1.363060 -1.794630 0.839290
			CHANNELS 3 Zrotation Yrotation Xrotation
			JOINT LeftLeg
			{
				OFFSET 2.448110 -6.726130 0.000000
				CHANNELS 3 Zrotation Yrotation Xrotation
				JOINT LeftFoot
				{
					OFFSET 2.562200 -7.039590 0.000000
					CHANNELS 3 Zrotation Yrotation Xrotation
					JOINT LeftToeBase
					{
						OFFSET 0.157640 -0.433110 2.322550
						CHANNELS 3 Zrotation Yrotation Xrotation
						End Site
						{
							OFFSET 0.000000 0.000000 0.000000
						}
					}
				}
			}
		}
	}
	JOINT RHipJoint
	{
		OFFSET 0.000000 0.000000 0.000000
		CHANNELS 3 Zrotation Yrotation Xrotation
		JOINT RightUpLeg
		{
			OFFSET -1.305520 -1.794630 0.839290
			CHANNELS 3 Zrotation Yrotation Xrotation
			JOINT RightLeg
			{
				OFFSET -2.542530 -6.985550 0.000000
				CHANNELS 3 Zrotation Yrotation Xrotation
				JOINT RightFoot
				{
					OFFSET -2.568260 -7.056230 0.000000
					CHANNELS 3 Zrotation Yrotation Xrotation
					JOINT RightToeBase
					{
						OFFSET -0.164730 -0.452590 2.363150
						CHANNELS 3 Zrotation Yrotation Xrotation
						End Site
						{
							OFFSET 0.000000 0.000000 0.000000
						}
					}
				}
			}
		}
	}
	JOINT LowerBack
	{
		OFFSET 0.000000 0.000000 0.000000
		CHANNELS 3 Zrotation Yrotation Xrotation
		JOINT Spine
		{
			OFFSET 0.028270 2.035590 -0.193380
			CHANNELS 3 Zrotation Yrotation Xrotation
			JOINT Spine1
			{
				OFFSET 0.056720 2.048850 -0.042750
				CHANNELS 3 Zrotation Yrotation Xrotation
				JOINT Neck
				{
					OFFSET 0.000000 0.000000 0.000000
					CHANNELS 3 Zrotation Yrotation Xrotation
					JOINT Neck1
					{
						OFFSET -0.054170 1.746240 0.172020
						CHANNELS 3 Zrotation Yrotation Xrotation
						JOINT Head
						{
							OFFSET 0.104070 1.761360 -0.123970
							CHANNELS 3 Zrotation Yrotation Xrotation
							End Site
							{
								OFFSET 0.000000 0.000000 0.000000
							}
						}
					}
				}
				JOINT LeftShoulder
				{
					OFFSET 0.000000 0.000000 0.000000
					CHANNELS 3 Zrotation Yrotation Xrotation
					JOINT LeftArm
					{
						OFFSET 3.362410 1.200890 -0.311210
						CHANNELS 3 Zrotation Yrotation Xrotation
						JOINT LeftForeArm
						{
							OFFSET 4.983000 -0.000000 -0.000000
							CHANNELS 3 Zrotation Yrotation Xrotation
							JOINT LeftHand
							{
								OFFSET 3.483560 -0.000000 -0.000000
								CHANNELS 3 Zrotation Yrotation Xrotation
								JOINT LeftFingerBase
								{
									OFFSET 0.000000 0.000000 0.000000
									CHANNELS 3 Zrotation Yrotation Xrotation
									JOINT LeftHandIndex1
									{
										OFFSET 0.715260 -0.000000 -0.000000
										CHANNELS 3 Zrotation Yrotation Xrotation
										End Site
										{
											OFFSET 0.000000 0.000000 0.000000
										}
									}
								}
								JOINT LThumb
								{
									OFFSET 0.000000 0.000000 0.000000
									CHANNELS 3 Zrotation Yrotation Xrotation
									End Site
									{
										OFFSET 0.000000 0.000000 0.000000
									}
								}
							}
						}
					}
				}
				JOINT RightShoulder
				{
					OFFSET 0.000000 0.000000 0.000000
					CHANNELS 3 Zrotation Yrotation Xrotation
					JOINT RightArm
					{
						OFFSET -3.136600 1.374050 -0.404650
						CHANNELS 3 Zrotation Yrotation Xrotation
						JOINT RightForeArm
						{
							OFFSET -5.241900 -0.000000 -0.000000
							CHANNELS 3 Zrotation Yrotation Xrotation
							JOINT RightHand
							{
								OFFSET -3.444170 -0.000000 -0.000000
								CHANNELS 3 Zrotation Yrotation Xrotation
								JOINT RightFingerBase
								{
									OFFSET 0.000000 0.000000 0.000000
									CHANNELS 3 Zrotation Yrotation Xrotation
									JOINT RightHandIndex1
									{
										OFFSET -0.622530 -0.000000 -0.000000
										CHANNELS 3 Zrotation Yrotation Xrotation
										End Site
										{
											OFFSET 0.000000 0.000000 0.000000
										}
									}
								}
								JOINT RThumb
								{
									OFFSET 0.000000 0.000000 0.000000
									CHANNELS 3 Zrotation Yrotation Xrotation
									End Site
									{
										OFFSET 0.000000 0.000000 0.000000
									}
								}
							}
						}
					}
				}
			}
		}
	}
}
MOTION
Frames: 5
Frame Time: 0.008333
0.005314 0.009486 0.103140 -0.030580 -0.034620 0.100815 -0.073301 -0.034679 -0.045541 0.190276 -0.129522 0.020872 -0.429308 -0.403224 -1.598693 -0.099774 0.511146 0.312917 0.006936 -0.069990 -0.193520 0.031167 -0.011774 0.044194 -0.038453 -0.127086 0.402392 0.069458 0.116245 -0.357638 0.077249 -0.205534 0.068879 0.031183 0.309597 -0.856164 0.090868 0.079892 -0.033750 -0.083900 0.111838 -0.074722 -0.108346 0.052456 -0.012169 0.104017 -0.035257 0.205421 -0.006337 -0.101747 -0.112940 -0.030782 -0.044425 -0.070449 0.007694 -0.003669 -0.000618 0.037239 0.168345 0.038288 -0.031163 0.046076 0.012285 0.004023 0.000819 0.117929 -0.229978 0.054117 -0.070334 0.000000 0.000000 0.000000 -0.251530 0.016566 -0.041215 0.000281 -0.003076 -0.005934 -0.003748 0.006774 0.035177 -0.167316 0.233848 -0.078902 -0.003122 0.004132 -0.122985 -0.003458 0.022539 -0.007567 -0.000000 0.000000 0.000000 0.001777 0.021782 0.003497
-0.052114 0.406988 0.793782 0.073602 -0.087012 -0.159233 -0.272336 -0.002244 -0.071448 0.162699 -0.155961 0.319841 -0.427988 -0.400096 -1.499788 -0.056745 0.532575 0.443742 0.021598 0.023473 0.315528 0.145433 0.025663 0.028423 -0.062915 -0.829000 0.335198 -0.063531 -0.384695 0.684304 0.074395 -1.795695 -1.858695 -0.084486 0.473807 -3.482435 -0.383854 0.068120 -0.469360 -0.264541 0.040877 -0.673794 -0.571535 0.118049 -0.647610 0.025573 -0.237385 0.024136 0.266442 -0.604760 -0.473275 -0.039666 -0.268832 -0.012732 -0.003608 0.020922 -0.040078 -0.194970 0.179597 0.054014 -0.216363 0.876239 0.101825 0.114154 0.104699 0.146926 0.866743 -0.275548 1.120623 0.121053 0.000000 0.000000 1.192145 -1.588136 0.008237 -0.267211 -0.178667 -0.166560 -1.052827 -1.735878 -1.808465 2.081814 -0.108002 0.219498 0.081333 -0.262093 -1.363385 -6.549660 -0.309583 2.435598 0.015298 0.000000 0.000000 -3.945484 -0.165440 0.215044
-0.073178 0.486148 0.068008 -0.025521 -0.512527 -0.662851 -0.616049 -0.035337 -0.122460 0.051448 -0.195519 0.342695 -0.498495 -0.510719 -1.515650 -0.025140 0.424875 0.371743 -0.000619 0.037981 0.721069 0.152503 0.013838 0.085087 0.036089 -1.471596 -0.052270 -0.288841 -1.026444 0.881182 -0.231663 -1.482607 -0.907798 0.058997 1.165405 -5.009994 -0.812155 -0.006781 -0.913885 -0.583412 -0.019916 -0.996210 -0.774692 0.018469 -1.087174 0.035718 -0.173767 -0.136387 0.489779 -0.982103 -0.862404 -0.077592 -0.452612 -0.058276 -0.022991 -0.051733 -0.076017 -0.803016 -0.044106 0.222949 -0.272245 1.158206 0.106741 0.233913 0.129071 -0.101415 1.183082 0.449459 1.364974 0.078825 0.000000 0.000000 -1.515466 -5.406509 -3.007525 -0.761908 -0.595022 -0.331238 -3.717738 -3.368974 -3.205853 2.748299 -0.353791 -0.809093 0.116157 -0.420960 -2.429763 -11.136951 -1.796014 2.037313 -0.005920 0.000000 0.000000 -7.807497 0.801133 0.630298
0.104775 0.536670 -0.438972 0.192461 -0.577468 -0.597673 -0.558497 0.000053 -0.041376 0.267895 0.064733 0.965353 -0.472516 -0.416470 -0.957658 0.070635 0.575556 0.616761 0.029906 0.210772 1.666454 0.390690 0.082042 0.292224 0.673788 -1.553566 -0.005821 -0.382979 -1.410065 1.841709 -0.410488 -1.852593 -0.504827 -0.024991 1.410158 -7.547935 -1.326815 -0.021707 -1.000300 -0.770862 0.024254 -1.259523 -0.892064 -0.145850 -1.591106 -0.269610 -0.145544 -0.241463 0.674273 -1.144619 -1.074514 -0.046580 -0.575012 -0.090461 0.102537 -0.091440 -0.083696 -1.184378 -0.291843 -0.274204 -0.396978 0.938638 -0.004052 0.322947 0.093826 0.322635 1.288249 2.575994 1.771058 0.093122 0.000000 0.000000 -3.791424 -7.365773 -5.055400 -1.113302 -0.878198 -0.397080 -5.763019 -4.842347 -3.651741 1.937575 -0.867740 -1.597161 0.157054 -0.520252 -3.453419 -12.128366 -3.621490 0.418352 -0.027742 0.000000 0.000000 -8.012623 4.555027 4.532252
0.251991 0.169681 -2.326913 0.016578 -1.167361 -0.519687 -0.603497 0.067357 0.034307 0.299289 0.189600 1.070293 -0.561646 -0.525731 -0.944045 0.100948 0.528537 0.709206 0.021841 0.365066 2.821935 0.559869 0.127781 0.254527 1.135633 -1.481394 0.198010 -0.172301 -1.366936 2.290775 -0.482535 -2.526966 -0.495763 -0.028738 1.929029 -10.438976 -1.503729 -0.124176 -0.831312 -0.930622 -0.010426 -1.269605 -0.784587 -0.337166 -2.149231 -1.130019 -0.513770 -0.407108 0.531568 -1.493510 -1.650181 -0.215183 -0.661830 -0.563364 -0.236515 -0.405309 -0.105644 -2.718753 -1.073280 -3.005837 -0.739669 0.343825 -0.258232 0.288306 -0.183048 0.091423 0.446562 4.925611 1.370131 0.170459 0.000000 0.000000 -7.261012 -9.479502 -6.802524 -1.330463 -1.012684 -0.525888 -8.499394 -6.684525 -3.704530 -1.085893 -2.663213 -3.805013 -0.237151 -0.714209 -5.391521 -10.269061 -6.522571 -2.848014 -0.108968 0.000000 0.000000 -10.824656 5.471292 2.237622
